<svg width="55" height="55" viewBox="0 0 55 55" fill="none" xmlns="http://www.w3.org/2000/svg">
<path d="M46.6211 8.37862C41.5136 3.27134 34.7227 0.458374 27.4997 0.458374C20.2767 0.458374 13.4858 3.27124 8.37826 8.37862C3.27098 13.4861 0.458008 20.2771 0.458008 27.5C0.458008 34.723 3.27087 41.514 8.37826 46.6215C13.4858 51.7287 20.2767 54.5417 27.4997 54.5417C34.7227 54.5417 41.5136 51.7288 46.6211 46.6215C51.7284 41.514 54.5413 34.723 54.5413 27.5C54.5413 20.2771 51.7285 13.4861 46.6211 8.37862ZM12.1942 45.8057C13.0872 38.1226 19.6929 32.1908 27.4997 32.1908C31.6151 32.1908 35.4852 33.7942 38.3962 36.7049C40.8554 39.1645 42.4065 42.3759 42.8055 45.8052C38.6587 49.2783 33.3193 51.3728 27.4997 51.3728C21.68 51.3728 16.3411 49.2787 12.1942 45.8057ZM27.4997 28.9268C22.9711 28.9268 19.2864 25.2422 19.2864 20.7136C19.2864 16.1847 22.9713 12.5004 27.4997 12.5004C32.0281 12.5004 35.7129 16.1847 35.7129 20.7136C35.7129 25.2422 32.0282 28.9269 27.4997 28.9269V28.9268ZM45.533 43.1265C44.7188 39.8477 43.026 36.8529 40.6367 34.4643C38.6892 32.5167 36.3851 31.0556 33.8722 30.14C36.8931 28.0914 38.8819 24.6302 38.8819 20.7136C38.8819 14.4376 33.7757 9.33142 27.4997 9.33142C21.2237 9.33142 16.1175 14.4376 16.1175 20.7136C16.1175 24.6324 18.108 28.0946 21.1313 30.1429C18.8193 30.9855 16.6799 32.2881 14.8392 34.0029C12.1736 36.4853 10.3226 39.6505 9.46436 43.124C5.82958 38.9338 3.62695 33.4695 3.62695 27.5C3.62695 14.3366 14.3362 3.62732 27.4997 3.62732C40.6632 3.62732 51.3724 14.3366 51.3724 27.5C51.3724 33.4706 49.1689 38.9363 45.533 43.1265Z" fill="black"/>
</svg>
